<?xml version="1.0" encoding="UTF-8"?>
<svg id="_图层_1" data-name="图层 1" xmlns="http://www.w3.org/2000/svg" version="1.1" viewBox="0 0 600 300">
  <defs>
    <style>
      .cls-1 {
        stroke-width: 5px;
      }

      .cls-1, .cls-2, .cls-3 {
        fill: none;
        stroke: #ff7e00;
        stroke-linecap: round;
        stroke-linejoin: round;
      }

      .cls-2 {
        stroke-width: 2px;
      }

      .cls-4 {
        fill: #ff7e00;
        stroke-width: 0px;
      }

      .cls-3 {
        stroke-width: 6px;
      }
    </style>
  </defs>
  <path class="cls-1" d="M45,99c2.13,3.29,5.72,8.42,11,14,6.2,6.55,6.91,5.32,16,15,2.54,2.71,4.64,5.16,6.5,7.5,3.03,3.81,2.77,3.98,5.5,7.5,4.5,5.82,7.75,8.66,12,14,4.01,5.04,3.67,5.08,9,12,5.55,7.22,7.11,8.72,12,15,4.7,6.03,8.29,11.11,9.96,13.51.4.58,1.05,1.48,1.04,1.49-.03.02-2.89-3.88-5.5-7.5-4.35-6.03-3.59-5.15-5-7-3.49-4.58-4.64-5.36-9-11-.55-.72-.6-.79-3-4-5.1-6.83-7.66-10.25-9-12-7.15-9.33-7.11-7.09-12-14-3.81-5.39-6-9.8-12-15-.03-.03-.31-.2-.61-.51-.2-.21-.31-.38-.39-.49-.33-.45-.66-.71-1-1-.75-.65-1.41-1.41-2-2-1.75-1.75-10.33-9.46-12-11-7.63-7.03-11.52-14.53-11.5-14.5Z"/>
  <path class="cls-3" d="M117,76c.22,1.18.41,2.95,0,5-.28,1.39-.72,2.37-1,3-1.56,3.54-1.49,4.27-3,8-5.27,13.06-11,24-11,24-8.98,17.15-23.07,38.74-29,48-6.67,10.4-16.14,25.67-27,45-1.02,1.41-1.35,2.41-1,3,.65,1.08,3.65.75,9-1"/>
  <path class="cls-1" d="M152,138c-3.16,11.26-5.39,21.38-7,30,0,0-3.18,17.05.5,28.5.72,2.24,2,4,2,4,1.04,1.43,2.18,2.4,3,3,.84.45,2.25,1.05,4,1,2.23-.07,3.85-1.17,5-2,6.03-4.37,8.5-7.5,8.5-7.5,6.99-8.86,10.76-13.71,16-23,2.3-4.07,4.1-7.29,6-12,2.9-7.18,4.28-13.51,5-18-2.93,8.93-5.79,20.43-7,34-.91,10.21-.68,19.34,0,27,1.55.99,3.52.99,5,0,2.07-1.37,2.01-3.87,2-4"/>
  <path class="cls-1" d="M213,168c1.97,1.51,5.34,3.72,10,5,2.75.75,10.19,2.8,18-1,5.69-2.76,9.19-7.41,10.75-10.96.54-1.23,1.44-3.36,1.35-6.23-.01-.46-.14-2.41-1.09-4.81-1.6-4.01-5.84-9-11.5-9.5-2.26-.2-4.11.37-5.79.9-3.3,1.03-5.49,2.67-6.71,3.6-1.81,1.38-3.21,2.45-4.36,4.43-1.11,1.93-1.52,3.93-1.72,4.88-.09.46-.2,1.37-.43,3.19-.31,2.57-.4,3.83-.43,4.52-.04.78-.05,1.36-.07,1.98-.06,2.58,0,4.56,0,5,0,6.14-.21,8.35,0,12,.11,1.9.36,4.65,1,8,.23,1.87.75,4.34,2,7,.96,2.04,2.4,5.22,5.74,7.59,1.45,1.03,2.83,1.6,3.76,1.91.43.2,1.07.46,1.86.7,1.04.31,3.25.83,7.14.3.1-.01.18-.03.28-.04,1.27-.2,5.39-.9,11.34-3.37.4-.16.81-.33,1.38-.59,4.98-2.28,10-6,10-6,1.69-1.13,3.72-2.86,6-5"/>
  <path class="cls-1" d="M361,110c-1.64,3.25-3.87,8.03-6,14-2.63,7.37-3.79,13.01-6,24-2.62,13.02-3.97,19.67-4,27-.03,6.97.78,12.69,1.5,16.5.29,1.24.85,3.05,2,5,0,0,3.1,5.27,10.5,8.5,7.76,3.39,23.05.82,39-9,4.77-3.32,11.28-8.74,17-17,9.72-14.03,11.57-28.18,12-35,.49-4.16,1.11-14.08-4-25-4.63-9.9-11.59-15.56-15-18-1.87-1.25-5.69-3.43-11-4-4.4-.47-7.95.35-10,1-2.17,1.2-5.88,3.63-9,8-4.06,5.69-4.82,11.44-5,14"/>
  <path class="cls-1" d="M430,211c.1.66.36,2.89-1,5-.65,1.01-1.44,1.64-2,2-1.83-5.53-3.83-11.2-6-17-2.61-6.97-5.29-13.64-8-20"/>
  <path class="cls-4" d="M453.9,140.77c1.01-1.49,3.2-2.48,4.82-.85.87.87.87,2.54.93,3.46.11,1.67-.45,3.32-.66,4.98-.17,1.13-.32,2.97-.59,4.12-.44,1.46-1.02,2.62-1.85,3.92-.19.25-.34.52-.69.7-.65.31-1.2-.31-1.07-.92.07-.6.28-1.16.46-1.7.08-.26.48-.21.5.06.07.57.09,1.16.27,1.67,0,.01.05.04-.02-.1-.1-.24-.56-.34-.75-.22,0,0-.1.05-.1.05-.07.05-.05.02-.05,0,.33-1.56.62-3.4.24-5l-.34-2.64c-.21-1.82-.94-3.69-.3-5.54.15-.41.33-1.27.52-.83.08.26.7.83.84.54-.18-.61-1.28-.9-1.96-1.24-.2-.06-.31-.28-.19-.46h0Z"/>
  <path class="cls-1" d="M449,177c.61,1.64,1.39,4.03,2,7,.43,2.09.8,4.65,1,10,.17,4.61.06,7.33,0,12-.04,3.09-.07,7.54,0,13l2,1"/>
  <path class="cls-1" d="M493.5,172.5c.23-1.19.41-2.95,0-5-.28-1.4-.73-2.4-1-3-.59-1.29-1-2.21-2-3-.23-.18-.93-.71-2-1-.37-.1-1.58-.39-3,0-1.01.28-1.89.84-3,2-1.98,2.07-2.97,4.26-3.5,5.5-.94,2.19-2.07,5.22-3,9-.77,3.02-1.47,6.36-2,10-.43,2.94-.85,6.78-.97,11.28-.03,1.11-.04,2.05-.03,2.72-.04.52-.06,1.24.01,2.09.1,1.17.33,3.59,1.99,5.91.5.71,1.38,1.9,2.99,2.72.98.5,1.89.7,2.51.78.65-.01,1.6-.09,2.69-.41,1.69-.5,2.81-1.33,3.81-2.09,1.2-.92,2.93-2.02,4.83-3.96.84-.87,1.41-1.56,1.91-2.17,2.42-2.97,2.45-3.85,5.26-7.87.42-.61,1.24-1.76,2.18-3.45.27-.48.54-.99.82-1.55.99-2.02,1.62-3.78,2-5,1.67-4,3.33-8,5-12-1.02,3.25-2.02,6.59-3,10-.62,2.17-1.25,3.83-1.76,6.31-.44,2.14-.64,3.95-.74,5.19-.1.48-.22,1.17-.28,2.01-.08,1.19,0,2.05.17,3.52.17,1.58.22,1.18.61,3.97.1.73.36,1.46.5,2.5.23,1.71.86,1.96,1,2,.62.19,1.42-.52,3-2,.63-.59,1.14-1.11,1.5-1.5"/>
  <path class="cls-1" d="M522,167c1.02,2.06,2.29,5.13,3,9,.79,4.29.53,7.57,0,13-.64,6.56-1.33,12.58-2,18,3.65-9.94,6.5-15.36,8.5-18.5.55-.86,2.44-3.76,5-8,1.88-3.12,1.81-3.11,3-5,0,0,4.67-7.4,8-9,.52-.25,1.32-.71,2.42-.81.41-.04,1.95-.17,3.39.76,0,0,.37.24.69.55,2.52,2.42,3,8,3,8,.38,3.09.25,5.4,0,9-.4,5.65-.6,8.48-1,12-.42,3.66-1.04,8.42-2,14"/>
  <path class="cls-2" d="M456,147c-.33-2-.67-4-1-6"/>
</svg>