<svg xmlns="http://www.w3.org/2000/svg" xmlns:xlink="http://www.w3.org/1999/xlink" width="28px" height="28px" viewBox="0 0 28 28" version="1.1">
    <!-- Generator: Sketch 60.1 (88133) - https://sketch.com -->
    <path d="M28.1,19 C28.1,19 27.2,18.9 23.1,17.6 C22,17.2 20.5,16.7 18.8,16 C19.8,14.3 20.6,12.3 21.1,10.1 L15.6,10.1 L15.6,8.1 L22.4,8.1 L22.4,7 L15.6,7 L15.6,3.7 L12.8,3.7 C12.3,3.7 12.3,4.2 12.3,4.2 L12.3,7 L5.5,7 L5.5,8.1 L12.4,8.1 L12.4,10.1 L6.7,10.1 L6.7,11.2 L17.7,11.2 C17.3,12.6 16.8,13.9 16.1,15.1 C12.5,13.9 8.7,13 6.4,13.6 C4.9,14 3.9,14.6 3.3,15.3 C0.6,18.5 2.6,23.4 8.1,23.4 C11.4,23.4 14.6,21.6 17.1,18.5 C20.8,20.3 28.1,23.3 28.1,23.3 L28.1,23.5 C28.1,26 26.1,28 23.6,28 L4.5,28 C2,28 0,26 0,23.5 L0,4.5 C0,2 2,0 4.5,0 L23.6,0 C26.1,0 28.1,2 28.1,4.5 L28.1,19 L28.1,19 Z M7.6,21.5 C3.2,21.5 1.9,18.1 4.1,16.2 C4.8,15.6 6.1,15.3 6.8,15.2 C9.4,14.9 11.8,15.9 14.6,17.3 C12.7,19.9 10.1,21.5 7.6,21.5 Z" id="Combined-Shape" fill="#226BF3"/>
</svg>